<?xml version="1.0" encoding="UTF-8"?>
<!DOCTYPE svg PUBLIC "-//W3C//DTD SVG 1.1//EN" "http://www.w3.org/Graphics/SVG/1.1/DTD/svg11.dtd">
<!-- Creator: CorelDRAW X7 -->
<svg xmlns="http://www.w3.org/2000/svg" xml:space="preserve" width="215.9mm" height="137.16mm" version="1.1" style="shape-rendering:geometricPrecision; text-rendering:geometricPrecision; image-rendering:optimizeQuality; fill-rule:evenodd; clip-rule:evenodd"
viewBox="0 0 21590 13716"
 xmlns:xlink="http://www.w3.org/1999/xlink">
 <defs>
  <style type="text/css">
   <![CDATA[
    .str0 {stroke:#2B2A29;stroke-width:141.11}
    .fil5 {fill:none}
    .fil6 {fill:#FEFEFE}
    .fil7 {fill:#B2B3B3}
    .fil0 {fill:#2B2A29}
    .fil1 {fill:#444444}
    .fil2 {fill:#865AA5}
    .fil3 {fill:#AB8867}
    .fil8 {fill:#B997D1}
    .fil4 {fill:#FBF4E2;fill-rule:nonzero}
   ]]>
  </style>
   <mask id="id0">
  <linearGradient id="id1" gradientUnits="userSpaceOnUse" x1="3452.69" y1="6972.52" x2="3742.43" y2="7041.3">
   <stop offset="0" style="stop-opacity:1; stop-color:white"/>
   <stop offset="1" style="stop-opacity:0; stop-color:white"/>
  </linearGradient>
    <rect style="fill:url(#id1)" x="3303" y="5767" width="589" height="2480"/>
   </mask>
   <mask id="id2">
  <linearGradient id="id3" gradientUnits="userSpaceOnUse" x1="4264.58" y1="7655.33" x2="4117.48" y2="7408.25">
   <stop offset="0" style="stop-opacity:1; stop-color:white"/>
   <stop offset="1" style="stop-opacity:0; stop-color:white"/>
  </linearGradient>
    <rect style="fill:url(#id3)" x="3861" y="7364" width="660" height="335"/>
   </mask>
   <mask id="id4">
  <linearGradient id="id5" gradientUnits="userSpaceOnUse" x1="13898.2" y1="8935.52" x2="14006.4" y2="9078.06">
   <stop offset="0" style="stop-opacity:1; stop-color:white"/>
   <stop offset="1" style="stop-opacity:0; stop-color:white"/>
  </linearGradient>
    <rect style="fill:url(#id5)" x="13537" y="8760" width="830" height="494"/>
   </mask>
   <mask id="id6">
  <linearGradient id="id7" gradientUnits="userSpaceOnUse" x1="14069.9" y1="9191.19" x2="13970.3" y2="8969.53">
   <stop offset="0" style="stop-opacity:1; stop-color:white"/>
   <stop offset="1" style="stop-opacity:0; stop-color:white"/>
  </linearGradient>
    <rect style="fill:url(#id7)" x="13673" y="9006" width="694" height="148"/>
   </mask>
   <mask id="id8">
  <linearGradient id="id9" gradientUnits="userSpaceOnUse" x1="15820.1" y1="9130.16" x2="15549.7" y2="8883.4">
   <stop offset="0" style="stop-opacity:1; stop-color:white"/>
   <stop offset="1" style="stop-opacity:0; stop-color:white"/>
  </linearGradient>
    <rect style="fill:url(#id9)" x="15406" y="8859" width="557" height="295"/>
   </mask>
   <mask id="id10">
  <linearGradient id="id11" gradientUnits="userSpaceOnUse" x1="15489" y1="8787.12" x2="15882" y2="9226.44">
   <stop offset="0" style="stop-opacity:1; stop-color:white"/>
   <stop offset="1" style="stop-opacity:0; stop-color:white"/>
  </linearGradient>
    <rect style="fill:url(#id11)" x="15271" y="8760" width="830" height="494"/>
   </mask>
   <mask id="id12">
  <linearGradient id="id13" gradientUnits="userSpaceOnUse" x1="16337.8" y1="8796.6" x2="16766.3" y2="9216.96">
   <stop offset="0" style="stop-opacity:1; stop-color:white"/>
   <stop offset="1" style="stop-opacity:0; stop-color:white"/>
  </linearGradient>
    <rect style="fill:url(#id13)" x="16137" y="8760" width="830" height="494"/>
   </mask>
   <mask id="id14">
  <linearGradient id="id15" gradientUnits="userSpaceOnUse" x1="16695.1" y1="9131.6" x2="16407.9" y2="8881.96">
   <stop offset="0" style="stop-opacity:1; stop-color:white"/>
   <stop offset="1" style="stop-opacity:0; stop-color:white"/>
  </linearGradient>
    <rect style="fill:url(#id15)" x="16273" y="8859" width="557" height="295"/>
   </mask>
   <mask id="id16">
  <linearGradient id="id17" gradientUnits="userSpaceOnUse" x1="17071.8" y1="5197.38" x2="17335" y2="5629.24">
   <stop offset="0" style="stop-opacity:1; stop-color:white"/>
   <stop offset="1" style="stop-opacity:0; stop-color:white"/>
  </linearGradient>
    <rect style="fill:url(#id17)" x="16594" y="5111" width="1218" height="605"/>
   </mask>
   <mask id="id18">
  <linearGradient id="id19" gradientUnits="userSpaceOnUse" x1="20162.2" y1="2842.73" x2="20029.2" y2="2707.57">
   <stop offset="0" style="stop-opacity:1; stop-color:white"/>
   <stop offset="1" style="stop-opacity:0; stop-color:white"/>
  </linearGradient>
    <rect style="fill:url(#id19)" x="19994" y="2673" width="204" height="204"/>
   </mask>
   <mask id="id20">
  <linearGradient id="id21" gradientUnits="userSpaceOnUse" x1="20079.5" y1="2596.74" x2="20315.1" y2="2750.36">
   <stop offset="0" style="stop-opacity:1; stop-color:white"/>
   <stop offset="1" style="stop-opacity:0; stop-color:white"/>
  </linearGradient>
    <rect style="fill:url(#id21)" x="19994" y="2470" width="407" height="407"/>
   </mask>
   <mask id="id22">
  <linearGradient id="id23" gradientUnits="userSpaceOnUse" x1="17216.1" y1="5826.1" x2="17078.7" y2="5685.78">
   <stop offset="0" style="stop-opacity:1; stop-color:white"/>
   <stop offset="1" style="stop-opacity:0; stop-color:white"/>
  </linearGradient>
    <rect style="fill:url(#id23)" x="17046" y="5664" width="204" height="183"/>
   </mask>
   <mask id="id24">
  <linearGradient id="id25" gradientUnits="userSpaceOnUse" x1="1230.55" y1="10811.5" x2="1116.95" y2="10675.2">
   <stop offset="0" style="stop-opacity:1; stop-color:white"/>
   <stop offset="1" style="stop-opacity:0; stop-color:white"/>
  </linearGradient>
    <rect style="fill:url(#id25)" x="1072" y="10641" width="204" height="204"/>
   </mask>
   <mask id="id26">
  <linearGradient id="id27" gradientUnits="userSpaceOnUse" x1="949.02" y1="10694.4" x2="1195.28" y2="10995.4">
   <stop offset="0" style="stop-opacity:1; stop-color:white"/>
   <stop offset="1" style="stop-opacity:0; stop-color:white"/>
  </linearGradient>
    <rect style="fill:url(#id27)" x="869" y="10641" width="407" height="407"/>
   </mask>
   <mask id="id28">
  <linearGradient id="id29" gradientUnits="userSpaceOnUse" x1="9857.14" y1="8011.81" x2="4404.38" y2="5506.67">
   <stop offset="0" style="stop-opacity:1; stop-color:white"/>
   <stop offset="1" style="stop-opacity:0; stop-color:white"/>
  </linearGradient>
    <rect style="fill:url(#id29)" x="1123" y="2724" width="12016" height="8070"/>
   </mask>
 </defs>
 <g id="Слой_x0020_1">
  <metadata id="CorelCorpID_0Corel-Layer"/>
  <path class="fil0" d="M1275 2470l18719 0c224,0 407,183 407,407l0 7765c0,224 -183,406 -407,406l-18719 0c-224,0 -406,-182 -406,-406l0 -7765c0,-224 182,-407 406,-407z"/>
  <path class="fil1" d="M1275 2521l18719 0c196,0 356,160 356,356l0 7765c0,196 -160,355 -356,355l-18719 0c-196,0 -355,-159 -355,-355l0 -7765c0,-196 159,-356 355,-356z"/>
  <path class="fil0" d="M1275 2674l18719 0c112,0 203,91 203,203l0 7765c0,112 -91,203 -203,203l-18719 0c-112,0 -203,-91 -203,-203l0 -7765c0,-112 91,-203 203,-203z"/>
  <path class="fil2" d="M1275 2724l18719 0c84,0 153,69 153,153l0 7765c0,84 -69,152 -153,152l-18719 0c-83,0 -152,-68 -152,-152l0 -7765c0,-84 69,-153 152,-153z"/>
  <path class="fil3" d="M4155 7648l366 0 0 599 -629 0c-383,3 -585,-195 -589,-579l0 -1999c4,-411 287,-556 665,-553l553 -5 0 604 -452 0c-96,0 -152,31 -152,133l-5 583 0 933c0,173 59,284 243,284zm2775 -1927l0 2531 -603 0 0 -2531 -1527 0 0 -609 3653 0 0 609 -1523 0zm4855 1268l-3038 0 0 -609 3043 0 -5 -1268 609 0 0 3140 -609 0 0 -1263zm3966 -1877l662 0 -3140 3140 -651 0 3129 -3140zm1209 2536c185,0 243,-111 243,-284l0 -933 -5 -584c0,-102 -56,-132 -152,-132l-451 0 0 -604 552 5c379,-3 661,142 665,554l0 1999c-3,383 -206,581 -589,578l-628 0 0 -599 365 0z"/>
  <path class="fil4" d="M4155 7699c-195,0 -294,-112 -294,-335l0 -426 0 -507 5 -584c0,-122 68,-182 203,-182l401 0 0 -502 -502 4c-406,-3 -611,165 -614,503l0 761 0 1237c3,356 183,531 537,528l579 0 0 -497 -315 0zm696 -2536l3551 0 0 507 -1522 0 0 2531 -502 0 0 -2531 -1527 0 0 -507zm7492 0l-507 0 5 1268 -3043 0 0 507 3038 0 0 1263 507 0 0 -3038zm3430 0l-3029 3038 508 0 3038 -3038 -517 0zm1187 2536c196,0 294,-112 294,-335l0 -426 0 -507 -5 -584c0,-122 -68,-182 -203,-182l-401 0 0 -502 502 4c407,-3 611,165 614,503l0 761 0 1237c-3,356 -182,531 -538,528l-578 0 0 -497 315 0z"/>
  <path class="fil3" d="M12301 8885l0 368 -161 0 0 -368 -335 0 0 -124 830 0 0 124 -334 0zm1199 185l-829 0 0 -125 829 0 0 125zm2 -185l-831 0 0 -124 831 0 0 124zm-2 245l0 124 -829 0 0 -124 829 0zm705 -246l-253 1c-81,0 -253,6 -253,122 0,116 171,122 253,122l415 0 0 124 -415 1c-166,0 -414,-30 -414,-247 0,-216 244,-247 412,-247l417 0 0 162 -161 0 -1 -38zm360 61l669 0 0 125 -668 0 0 183 -162 0 0 -492 163 0 -2 184zm1118 -185c166,0 417,29 417,247 0,217 -248,247 -415,247 -166,0 -414,-30 -414,-247 0,-216 245,-247 412,-247zm866 0c167,0 418,29 418,247 0,217 -248,247 -415,247 -167,0 -415,-30 -415,-247 0,-216 245,-247 412,-247zm1285 125l-830 0 0 -124 830 0 0 124zm-668 185l0 183 -162 0 0 -308 829 0 0 125 -667 0zm-1228 -63c0,-116 -172,-122 -253,-122 -81,0 -253,6 -253,122 0,116 172,122 253,122 81,0 253,-6 253,-122zm867 0c0,-116 -172,-122 -253,-122 -81,0 -254,6 -254,122 0,116 172,122 253,122 82,0 254,-6 254,-122z"/>
  <path class="fil4" d="M11830 8786l780 0 0 74 -335 0 0 368 -110 0 0 -368 -335 0 0 -74zm1645 258l-779 0 0 -74 779 0 0 74zm1 -184l-780 0 0 -74 780 0 0 74zm-1 295l0 74 -779 0 0 -74 779 0zm755 -296l-278 0c-186,0 -279,49 -279,148 0,98 93,147 279,147l390 0 0 74 -390 0c-259,1 -389,-73 -389,-221 0,-147 129,-221 387,-222l392 0 0 56 0 56 -111 0 -1 -38zm200 -73l111 0 -1 184 668 0 0 74 -667 0 0 184 -111 0 0 -442zm1253 -1c261,0 392,74 392,222 0,147 -130,221 -390,221 -259,1 -389,-73 -389,-221 0,-147 129,-221 387,-222zm280 222c0,-99 -92,-148 -278,-148 -186,0 -279,49 -279,148 0,98 93,147 279,147 186,0 278,-49 278,-147zm586 -222c262,0 392,74 392,222 0,147 -129,221 -389,221 -259,1 -389,-73 -389,-221 0,-147 129,-221 386,-222zm281 222c0,-99 -93,-148 -278,-148 -186,0 -279,49 -279,148 0,98 93,147 278,147 186,0 279,-49 279,-147zm979 -147l-780 0 0 -74 780 0 0 74zm-1 184l-667 0 0 92 0 92 -112 0 0 -184 0 -74 779 0 0 74z"/>
  <g id="_430159552">
   <line class="fil5" x1="3891" y1="8196" x2="3892" y2= "8247" />
  </g>
  <path class="fil6" style="mask:url(#id0)" d="M3354 7668l0 -1237 0 -664 -51 28 0 1873c4,384 206,582 589,579l-1 -51c-354,3 -534,-172 -537,-528z"/>
  <path class="fil6" d="M3354 5670c3,-338 208,-506 614,-503l502 -4 51 -52 -553 5c-378,-3 -661,142 -665,553l0 126 51 -28 0 -97z"/>
  <g id="_430158952">
   <line class="fil5" x1="4470" y1="7699" x2="4521" y2= "7648" />
  </g>
  <g id="_430158640">
   <line class="fil5" x1="3912" y1="7364" x2="3861" y2= "7364" />
  </g>
  <path class="fil6" style="mask:url(#id2)" d="M4521 7648l-366 0c-184,0 -243,-111 -243,-284l-51 0c0,223 99,335 294,335l315 0 51 -51z"/>
  <g id="_430158184">
   <line class="fil5" x1="4851" y1="5670" x2="4800" y2= "5721" />
  </g>
  <g id="_430143504">
   <line class="fil5" x1="8402" y1="5163" x2="8453" y2= "5112" />
  </g>
  <polygon class="fil6" points="4851,5670 4851,5163 8402,5163 8453,5112 4800,5112 4800,5721 "/>
  <g id="_430143048">
   <line class="fil5" x1="6327" y1="5721" x2="6378" y2= "5670" />
  </g>
  <g id="_430142736">
   <line class="fil5" x1="6327" y1="8252" x2="6378" y2= "8201" />
  </g>
  <polygon class="fil6" points="6327,8252 6378,8201 6378,5670 6327,5721 "/>
  <g id="_430142304">
   <line class="fil5" x1="8747" y1="6989" x2="8798" y2= "6938" />
  </g>
  <g id="_430141992">
   <line class="fil5" x1="12394" y1="5112" x2="12343" y2= "5163" />
  </g>
  <polygon class="fil6" points="12343,5163 12394,5112 11785,5112 11790,6380 8747,6380 8747,6989 8798,6938 8798,6431 11841,6431 11836,5163 "/>
  <g id="_430141536">
   <line class="fil5" x1="11785" y1="6989" x2="11836" y2= "6938" />
  </g>
  <g id="_430207776">
   <line class="fil5" x1="11836" y1="8201" x2="11785" y2= "8252" />
  </g>
  <polygon class="fil6" points="11785,8252 11836,8201 11836,6938 11785,6989 "/>
  <g id="_430207344">
   <line class="fil5" x1="16595" y1="5715" x2="16645" y2= "5665" />
  </g>
  <g id="_430207032">
   <line class="fil5" x1="17761" y1="5670" x2="17812" y2= "5670" />
  </g>
  <g id="_430206720">
   <line class="fil5" x1="16595" y1="8247" x2="16645" y2= "8196" />
  </g>
  <g id="_430206408">
   <line class="fil5" x1="17046" y1="5715" x2="17046" y2= "5665" />
  </g>
  <g id="_430206096">
   <line class="fil5" x1="16289" y1="5164" x2="16413" y2= "5112" />
  </g>
  <g id="_430389712">
   <line class="fil5" x1="12744" y1="8201" x2="12622" y2= "8252" />
  </g>
  <polygon class="fil6" points="12622,8252 12744,8201 15773,5163 16290,5163 16289,5164 16413,5112 15751,5112 "/>
  <g id="_430389256">
   <line class="fil5" x1="11830" y1="8860" x2="11805" y2= "8885" />
  </g>
  <g id="_430388920">
   <line class="fil5" x1="12610" y1="8786" x2="12635" y2= "8761" />
  </g>
  <polygon class="fil6" points="12610,8786 12635,8761 11805,8761 11805,8885 11830,8860 11830,8786 "/>
  <g id="_430388464">
   <line class="fil5" x1="12165" y1="8860" x2="12140" y2= "8885" />
  </g>
  <g id="_430388152">
   <line class="fil5" x1="12165" y1="9228" x2="12140" y2= "9253" />
  </g>
  <g id="_325005304">
   <line class="fil5" x1="12696" y1="8860" x2="12671" y2= "8885" />
  </g>
  <g id="_325004992">
   <line class="fil5" x1="12696" y1="9044" x2="12671" y2= "9070" />
  </g>
  <g id="_325004680">
   <line class="fil5" x1="12696" y1="9229" x2="12671" y2= "9254" />
  </g>
  <g id="_325004368">
   <line class="fil5" x1="13476" y1="8786" x2="13502" y2= "8761" />
  </g>
  <g id="_325004056">
   <line class="fil5" x1="13475" y1="8970" x2="13500" y2= "8945" />
  </g>
  <g id="_325003744">
   <line class="fil5" x1="13475" y1="9155" x2="13500" y2= "9130" />
  </g>
  <polygon class="fil6" points="12696,8860 12696,8786 13476,8786 13502,8761 12671,8761 12671,8885 "/>
  <polygon class="fil6" points="13500,8945 12671,8945 12671,9070 12696,9044 12696,8970 13475,8970 "/>
  <polygon class="fil6" points="13500,9130 12671,9130 12671,9254 12696,9229 12696,9155 13475,9155 "/>
  <polygon class="fil6" points="12165,9228 12165,8860 12140,8885 12140,9253 "/>
  <g id="_324853832">
   <line class="fil5" x1="14230" y1="8859" x2="14205" y2= "8884" />
  </g>
  <g id="_324853520">
   <line class="fil5" x1="14231" y1="8897" x2="14206" y2= "8922" />
  </g>
  <g id="_324853208">
   <line class="fil5" x1="14342" y1="8785" x2="14367" y2= "8760" />
  </g>
  <g id="_324852896">
   <line class="fil5" x1="13952" y1="9228" x2="13952" y2= "9254" />
  </g>
  <g id="_324852584">
   <line class="fil5" x1="14367" y1="9129" x2="14342" y2= "9154" />
  </g>
  <g id="_325033760">
   <line class="fil5" x1="13699" y1="9007" x2="13673" y2= "9007" />
  </g>
  <polygon class="fil6" points="14205,8884 14206,8922 14231,8897 14230,8859 "/>
  <path class="fil6" style="mask:url(#id4)" d="M13950 8785l392 0 25 -25 -417 0c-168,0 -412,31 -412,247 0,217 248,247 414,247l0 -26c-259,1 -389,-73 -389,-221 0,-147 129,-221 387,-222z"/>
  <path class="fil6" style="mask:url(#id6)" d="M14367 9129l-415 0c-82,0 -253,-6 -253,-122l-26 0c0,98 93,147 279,147l390 0 25 -25z"/>
  <g id="_325033064">
   <line class="fil5" x1="14567" y1="8761" x2="14541" y2= "8786" />
  </g>
  <g id="_325032752">
   <line class="fil5" x1="14430" y1="9228" x2="14404" y2= "9253" />
  </g>
  <g id="_325032440">
   <line class="fil5" x1="14567" y1="8945" x2="14540" y2= "8970" />
  </g>
  <g id="_325032128">
   <line class="fil5" x1="15234" y1="8945" x2="15208" y2= "8970" />
  </g>
  <polygon class="fil6" points="15208,8970 15234,8945 14567,8945 14540,8970 "/>
  <polygon class="fil6" points="14430,8786 14541,8786 14567,8761 14404,8761 14404,9253 14430,9228 "/>
  <path class="fil6" style="mask:url(#id8)" d="M15685 8859c-186,0 -279,49 -279,148 0,98 93,147 279,147 186,0 278,-49 278,-147 0,-99 -92,-148 -278,-148zm-253 148c0,-116 172,-122 253,-122 81,0 253,6 253,122 0,116 -172,122 -253,122 -81,0 -253,-6 -253,-122z"/>
  <path class="fil6" style="mask:url(#id10)" d="M15296 9007c0,-147 129,-221 387,-222 261,0 392,74 392,222 0,147 -130,221 -390,221 -259,1 -389,-73 -389,-221zm387 -247c-167,0 -412,31 -412,247 0,217 248,247 414,247 167,0 415,-30 415,-247 0,-218 -251,-247 -417,-247z"/>
  <path class="fil6" style="mask:url(#id12)" d="M16549 8760c-167,0 -412,31 -412,247 0,217 248,247 415,247 167,0 415,-30 415,-247 0,-218 -251,-247 -418,-247zm-386 247c0,-147 129,-221 386,-222 262,0 392,74 392,222 0,147 -129,221 -389,221 -259,1 -389,-73 -389,-221z"/>
  <path class="fil6" style="mask:url(#id14)" d="M16552 8859c-186,0 -279,49 -279,148 0,98 93,147 278,147 186,0 279,-49 279,-147 0,-99 -93,-148 -278,-148zm-254 148c0,-116 173,-122 254,-122 81,0 253,6 253,122 0,116 -172,122 -254,122 -81,0 -253,-6 -253,-122z"/>
  <g id="_324842344">
   <line class="fil5" x1="17834" y1="8761" x2="17809" y2= "8786" />
  </g>
  <g id="_430216576">
   <line class="fil5" x1="17833" y1="8945" x2="17808" y2= "8970" />
  </g>
  <g id="_430216264">
   <line class="fil5" x1="17029" y1="8860" x2="17004" y2= "8885" />
  </g>
  <g id="_430215952">
   <line class="fil5" x1="17029" y1="9228" x2="17004" y2= "9253" />
  </g>
  <polygon class="fil6" points="17004,9253 17029,9228 17029,9044 17029,8970 17808,8970 17833,8945 17004,8945 "/>
  <polygon class="fil6" points="17004,8885 17029,8860 17029,8786 17809,8786 17834,8761 17004,8761 "/>
  <g id="_324870816">
   <line class="fil5" x1="20350" y1="2877" x2="20350" y2= "2877" />
  </g>
  <g id="_324870504">
   <line class="fil5 str0" x1="10795" y1="6858" x2="10795" y2= "6858" />
  </g>
  <g id="_324870192">
   <line class="fil5 str0" x1="10795" y1="6858" x2="10795" y2= "6858" />
  </g>
  <g id="_321105520">
   <line class="fil5 str0" x1="10795" y1="6858" x2="10795" y2= "6858" />
  </g>
  <g id="_321105208">
   <line class="fil5" x1="20401" y1="2877" x2="20350" y2= "2877" />
  </g>
  <g id="_321104896">
   <line class="fil5" x1="19994" y1="2674" x2="19994" y2= "2724" />
  </g>
  <g id="_324868320">
   <line class="fil5" x1="1123" y1="10642" x2="1072" y2= "10642" />
  </g>
  <g id="_324868008">
   <line class="fil5" x1="1275" y1="10997" x2="1275" y2= "11048" />
  </g>
  <g id="_324867696">
   <line class="fil5" x1="1016" y1="2634" x2="978" y2= "2600" />
  </g>
  <g id="_320883128">
   <line class="fil5" x1="20106" y1="10745" x2="20142" y2= "10780" />
  </g>
  <path class="fil6" style="mask:url(#id16)" d="M16595 5111l0 604 50 -50 0 -502 502 4c407,-3 611,165 614,503l51 0c-4,-412 -286,-557 -665,-554l-552 -5z"/>
  <g id="_320882672">
   <line class="fil5" x1="20197" y1="2877" x2="20147" y2= "2877" />
  </g>
  <path class="fil7" d="M20197 2877l-50 0 0 7765c0,39 -16,76 -41,103l36 35c34,-36 55,-85 55,-138l0 -7765z"/>
  <path class="fil7" style="mask:url(#id18)" d="M20147 2877l50 0c0,-112 -91,-203 -203,-203l0 50c84,0 153,69 153,153z"/>
  <rect class="fil7" x="20147" y="2875" width="50.79" height="2.89"/>
  <g id="_324869672">
   <line class="fil5" x1="19994" y1="2521" x2="19994" y2= "2470" />
  </g>
  <path class="fil7" d="M19994 2521l0 -51 -18719 0c-117,0 -223,50 -297,130l38 34c65,-70 157,-113 259,-113l18719 0z"/>
  <path class="fil7" style="mask:url(#id20)" d="M19994 2470l0 51c196,0 356,160 356,356l51 0c0,-224 -183,-407 -407,-407z"/>
  <rect class="fil7" x="19992" y="2470" width="4.15" height="50.79"/>
  <g id="_321369264">
   <line class="fil5" x1="17249" y1="5847" x2="17198" y2= "5847" />
  </g>
  <path class="fil6" d="M17249 5847l-51 0 5 584 0 933c0,173 -58,284 -243,284l-365 0 0 599 50 -51 0 -497 315 0c196,0 294,-112 294,-335l0 -426 0 -507 -5 -584z"/>
  <path class="fil6" style="mask:url(#id22)" d="M17198 5847l51 0c0,-122 -68,-182 -203,-182l0 50c96,0 152,30 152,132z"/>
  <rect class="fil6" x="17198" y="5846" width="50.78" height="3.87"/>
  <g id="_321368520">
   <line class="fil5" x1="1275" y1="10794" x2="1275" y2= "10845" />
  </g>
  <path class="fil7" d="M1275 10794l0 51 18719 0c58,0 111,-25 148,-65l-36 -35c-28,30 -68,49 -112,49l-18719 0z"/>
  <path class="fil7" style="mask:url(#id24)" d="M1275 10845l0 -51c-83,0 -152,-68 -152,-152l-51 0c0,112 91,203 203,203z"/>
  <rect class="fil7" x="1270" y="10794" width="6.57" height="50.79"/>
  <g id="_430209360">
   <line class="fil5" x1="920" y1="10642" x2="869" y2= "10642" />
  </g>
  <path class="fil7" d="M869 10642l51 0 0 -7765c0,-94 36,-180 96,-243l-38 -34c-68,72 -109,170 -109,277l0 7765z"/>
  <path class="fil7" style="mask:url(#id26)" d="M920 10642l-51 0c0,224 182,406 406,406l0 -51c-196,0 -355,-159 -355,-355z"/>
  <rect class="fil7" x="869" y="10638" width="50.79" height="6.61"/>
  <rect class="fil6" x="3303" y="5757" width="50.8" height="46.17"/>
  <g id="_324874336">
   <line class="fil5" x1="10635" y1="10794" x2="13139" y2= "2724" />
  </g>
  <path class="fil8" style="mask:url(#id28)" d="M10635 10794l1150 -3708 0 -97 -3038 0 0 -609 3043 0 -5 -1268 609 0 0 11 745 -2399 -11864 0c-83,0 -152,69 -152,153l0 7765c0,82 66,149 147,152 2,0 4,0 5,0l2 0 9358 0zm-6114 -3146l0 599 -629 0c-383,3 -585,-195 -589,-579l0 -1865 0 -8 0 -38 0 -88c4,-411 287,-556 665,-553l553 -5 0 604 -452 0c-96,0 -152,31 -152,133l-5 583 0 933c0,173 59,284 243,284l366 0zm2409 -1927l0 2531 -603 0 0 -2531 -1527 0 0 -609 3653 0 0 609 -1523 0z"/>
 </g>
</svg>
